<svg xmlns="http://www.w3.org/2000/svg" xmlns:xlink="http://www.w3.org/1999/xlink" width="250" zoomAndPan="magnify" viewBox="0 0 187.5 119.999999" height="160" preserveAspectRatio="xMidYMid meet" version="1.0"><defs><g/><clipPath id="d772aa4249"><path d="M 29.957031 46.488281 L 66.609375 46.488281 L 66.609375 83.140625 L 29.957031 83.140625 Z M 29.957031 46.488281 " clip-rule="nonzero"/></clipPath><clipPath id="52778b7c05"><path d="M 33.347656 23.765625 L 78.230469 23.765625 L 78.230469 59.667969 L 33.347656 59.667969 Z M 33.347656 23.765625 " clip-rule="nonzero"/></clipPath></defs><g clip-path="url(#d772aa4249)"><path fill="#ff5757" d="M 48.449219 46.484375 C 58.65625 46.484375 66.933594 54.757812 66.933594 64.964844 C 66.933594 72.757812 62.113281 79.421875 55.289062 82.140625 L 55.019531 76.316406 L 55.019531 76.308594 C 55.035156 75.15625 55.519531 74.246094 56.601562 73.789062 L 56.738281 73.734375 L 56.746094 73.734375 L 56.769531 73.722656 C 57.5625 73.402344 58.210938 72.96875 58.652344 72.21875 C 59.203125 71.285156 59.308594 70.039062 59.308594 68.980469 C 59.308594 66.941406 58.707031 64.539062 57.671875 62.777344 C 56.9375 61.527344 55.777344 60.261719 54.214844 60.261719 C 52.648438 60.261719 51.488281 61.527344 50.753906 62.777344 C 49.71875 64.539062 49.117188 66.941406 49.117188 68.980469 C 49.117188 70.039062 49.222656 71.285156 49.773438 72.21875 C 50.21875 72.972656 50.875 73.410156 51.671875 73.730469 C 51.695312 73.738281 51.71875 73.75 51.738281 73.757812 L 51.746094 73.757812 L 51.816406 73.789062 C 52.898438 74.242188 53.390625 75.140625 53.40625 76.308594 L 53.40625 76.316406 L 53.101562 82.859375 C 51.613281 83.246094 50.054688 83.453125 48.449219 83.453125 C 46.785156 83.453125 45.171875 83.230469 43.636719 82.816406 L 43.351562 76.691406 L 43.351562 76.679688 C 43.367188 75.5 43.871094 74.566406 44.976562 74.101562 L 45.117188 74.042969 L 45.121094 74.042969 L 45.128906 74.039062 L 45.144531 74.035156 C 45.921875 73.71875 46.558594 73.292969 46.992188 72.558594 C 47.535156 71.636719 47.640625 70.398438 47.640625 69.355469 C 47.640625 69.253906 47.636719 69.152344 47.628906 69.050781 C 47.625 68.992188 47.621094 68.933594 47.613281 68.875 L 47.605469 68.789062 L 47.621094 68.734375 L 46.949219 60.914062 L 46.246094 60.914062 L 46.183594 69.179688 L 45.011719 69.292969 L 44.316406 59.957031 L 43.554688 60 L 43.40625 69.410156 L 42.988281 69.425781 C 42.902344 69.429688 42.816406 69.433594 42.730469 69.433594 C 42.644531 69.433594 42.558594 69.429688 42.46875 69.425781 L 42.058594 69.410156 L 41.847656 60 L 41.085938 59.957031 L 40.449219 69.296875 L 39.277344 69.179688 L 39.21875 60.914062 L 38.511719 60.914062 L 37.601562 68.738281 L 37.617188 68.792969 L 37.609375 68.875 C 37.601562 68.933594 37.597656 68.992188 37.59375 69.050781 C 37.585938 69.152344 37.582031 69.253906 37.582031 69.355469 C 37.582031 70.398438 37.6875 71.636719 38.230469 72.558594 C 38.667969 73.300781 39.3125 73.726562 40.09375 74.039062 C 40.113281 74.046875 40.132812 74.054688 40.148438 74.0625 L 40.15625 74.0625 L 40.238281 74.097656 C 41.34375 74.5625 41.855469 75.484375 41.871094 76.679688 L 41.871094 76.691406 L 41.617188 82.152344 C 34.789062 79.4375 29.960938 72.765625 29.960938 64.96875 C 29.964844 54.757812 38.238281 46.484375 48.449219 46.484375 " fill-opacity="1" fill-rule="evenodd"/></g><path fill="#f6f5f4" d="M 56.09375 32.484375 C 56.421875 32.484375 56.421875 31.96875 56.09375 31.96875 C 55.765625 31.96875 55.765625 32.484375 56.09375 32.484375 Z M 56.09375 32.484375 " fill-opacity="1" fill-rule="nonzero"/><g clip-path="url(#52778b7c05)"><path fill="#4d433a" d="M 34.808594 30.707031 C 35.082031 30.101562 35.402344 29.488281 35.816406 28.882812 C 36.222656 28.28125 36.707031 27.664062 37.34375 27.074219 C 37.660156 26.777344 38.023438 26.480469 38.429688 26.207031 C 38.605469 26.085938 38.757812 25.988281 38.933594 25.878906 C 39.097656 25.769531 39.273438 25.667969 39.449219 25.570312 C 40.152344 25.164062 40.921875 24.792969 41.777344 24.484375 C 42.621094 24.175781 43.554688 23.945312 44.496094 23.847656 C 44.738281 23.824219 44.96875 23.804688 45.210938 23.792969 C 45.453125 23.78125 45.683594 23.78125 45.910156 23.792969 C 46.382812 23.804688 46.832031 23.859375 47.273438 23.9375 C 48.148438 24.089844 48.941406 24.339844 49.652344 24.660156 C 50.355469 24.976562 50.980469 25.339844 51.539062 25.734375 C 51.816406 25.933594 52.089844 26.140625 52.339844 26.347656 C 52.59375 26.558594 52.835938 26.777344 53.054688 26.996094 C 53.285156 27.214844 53.503906 27.4375 53.714844 27.664062 C 53.824219 27.777344 53.921875 27.894531 54.019531 28.007812 L 54.171875 28.183594 L 54.304688 28.347656 C 54.480469 28.554688 54.644531 28.753906 54.820312 28.960938 L 55.085938 29.269531 L 55.359375 29.574219 C 56.707031 31.066406 58.167969 32.539062 59.671875 33.996094 C 59.902344 33.941406 60.132812 33.898438 60.371094 33.863281 C 60.679688 33.808594 60.988281 33.777344 61.304688 33.746094 C 61.613281 33.710938 61.929688 33.691406 62.238281 33.679688 C 62.390625 33.667969 62.554688 33.667969 62.710938 33.667969 C 62.863281 33.667969 63.027344 33.667969 63.179688 33.667969 C 64.433594 33.691406 65.703125 33.875 66.878906 34.28125 C 67.175781 34.378906 67.460938 34.5 67.746094 34.632812 C 68.03125 34.765625 68.292969 34.917969 68.558594 35.070312 C 68.820312 35.238281 69.0625 35.410156 69.292969 35.597656 C 69.523438 35.785156 69.742188 35.992188 69.941406 36.214844 C 70.039062 36.324219 70.136719 36.433594 70.226562 36.542969 C 70.3125 36.652344 70.402344 36.773438 70.488281 36.894531 C 70.652344 37.125 70.796875 37.375 70.925781 37.617188 C 71.027344 37.804688 71.113281 38 71.191406 38.199219 C 71.441406 38.230469 71.683594 38.277344 71.914062 38.332031 C 72.476562 38.453125 73.023438 38.605469 73.550781 38.8125 C 74.601562 39.21875 75.558594 39.800781 76.316406 40.546875 C 76.699219 40.917969 77.015625 41.324219 77.292969 41.765625 C 77.421875 41.984375 77.542969 42.203125 77.652344 42.421875 C 77.761719 42.652344 77.851562 42.882812 77.925781 43.113281 C 78.082031 43.574219 78.191406 44.046875 78.246094 44.519531 C 78.257812 44.640625 78.269531 44.75 78.277344 44.871094 C 78.289062 44.992188 78.289062 45.101562 78.300781 45.222656 C 78.300781 45.339844 78.3125 45.453125 78.3125 45.570312 L 78.3125 45.921875 C 78.289062 46.417969 78.210938 46.933594 78.058594 47.480469 C 77.894531 48.03125 77.640625 48.601562 77.246094 49.171875 C 77.050781 49.457031 76.820312 49.742188 76.546875 50.003906 C 76.269531 50.269531 75.972656 50.519531 75.65625 50.75 C 75.339844 50.980469 75 51.179688 74.648438 51.34375 C 74.296875 51.519531 73.945312 51.648438 73.59375 51.769531 C 72.890625 52.011719 72.210938 52.15625 71.554688 52.242188 C 70.90625 52.332031 70.28125 52.363281 69.675781 52.375 C 69.402344 52.375 69.128906 52.363281 68.863281 52.351562 C 68.722656 52.976562 68.578125 53.59375 68.4375 54.21875 C 68.285156 54.875 68.117188 55.535156 67.953125 56.191406 C 67.789062 56.851562 67.625 57.507812 67.449219 58.167969 L 67.363281 58.507812 C 67.261719 58.878906 66.988281 59.230469 66.550781 59.472656 C 65.726562 59.945312 64.664062 59.835938 64.167969 59.230469 C 64.167969 59.230469 64.148438 59.210938 64.136719 59.199219 L 64.101562 59.164062 L 64.027344 59.101562 L 63.871094 58.957031 C 63.773438 58.859375 63.664062 58.769531 63.554688 58.671875 C 63.335938 58.484375 63.117188 58.300781 62.894531 58.113281 C 62.445312 57.738281 61.984375 57.367188 61.523438 57.015625 C 60.59375 56.292969 59.605469 55.601562 58.59375 54.929688 C 57.574219 54.261719 56.523438 53.625 55.425781 53.023438 C 54.328125 52.417969 53.175781 51.859375 51.980469 51.320312 C 52.332031 51.355469 52.679688 51.386719 53.03125 51.441406 C 53.207031 51.464844 53.382812 51.496094 53.558594 51.519531 L 54.074219 51.605469 L 54.339844 51.648438 L 54.589844 51.703125 L 55.105469 51.816406 C 55.269531 51.847656 55.445312 51.890625 55.609375 51.933594 C 55.777344 51.980469 55.953125 52.011719 56.117188 52.054688 C 57.453125 52.394531 58.761719 52.824219 60.011719 53.316406 C 61.261719 53.8125 62.480469 54.371094 63.640625 54.984375 C 63.785156 55.0625 63.917969 55.140625 64.058594 55.203125 C 64.082031 55.007812 64.101562 54.820312 64.136719 54.625 C 64.09375 54.589844 64.046875 54.546875 64.003906 54.515625 C 63.871094 54.402344 63.730469 54.292969 63.585938 54.183594 C 63.027344 53.757812 62.457031 53.339844 61.855469 52.945312 C 61.25 52.550781 60.625 52.175781 59.96875 51.824219 C 59.308594 51.484375 58.617188 51.179688 57.859375 50.9375 C 58.695312 50.96875 59.527344 51.078125 60.351562 51.234375 C 61.164062 51.386719 61.964844 51.585938 62.753906 51.804688 C 63.324219 51.96875 63.882812 52.144531 64.433594 52.320312 C 64.441406 52.265625 64.441406 52.199219 64.453125 52.144531 C 64.464844 52.035156 64.488281 51.925781 64.5 51.816406 C 64.269531 51.605469 64.039062 51.386719 63.796875 51.1875 C 63.457031 50.914062 63.105469 50.628906 62.722656 50.386719 C 62.335938 50.136719 61.941406 49.90625 61.480469 49.71875 C 62.019531 49.695312 62.566406 49.742188 63.105469 49.796875 C 63.640625 49.863281 64.167969 49.949219 64.695312 50.058594 C 64.71875 50.058594 64.730469 50.070312 64.75 50.070312 C 64.761719 50.003906 64.785156 49.925781 64.804688 49.863281 C 65.167969 48.875 66.429688 48.214844 67.625 48.390625 L 67.84375 48.425781 L 68.085938 48.457031 C 68.183594 48.46875 68.285156 48.480469 68.382812 48.492188 C 68.578125 48.511719 68.777344 48.535156 68.984375 48.546875 C 69.390625 48.578125 69.785156 48.578125 70.179688 48.566406 C 70.949219 48.554688 71.683594 48.433594 72.179688 48.261719 C 72.429688 48.171875 72.617188 48.074219 72.769531 47.976562 C 72.847656 47.917969 72.914062 47.863281 72.980469 47.808594 C 73.046875 47.746094 73.101562 47.679688 73.15625 47.601562 C 73.277344 47.449219 73.375 47.238281 73.460938 47 C 73.539062 46.757812 73.605469 46.472656 73.625 46.175781 L 73.636719 46.121094 L 73.636719 46.054688 L 73.648438 45.933594 C 73.660156 45.855469 73.660156 45.769531 73.660156 45.691406 L 73.660156 45.453125 C 73.660156 45.375 73.660156 45.296875 73.648438 45.222656 C 73.625 44.914062 73.59375 44.617188 73.515625 44.332031 C 73.449219 44.046875 73.351562 43.773438 73.230469 43.519531 C 73.109375 43.269531 72.957031 43.027344 72.769531 42.796875 C 72.585938 42.566406 72.375 42.355469 72.132812 42.160156 C 71.894531 41.960938 71.617188 41.785156 71.324219 41.621094 C 71.027344 41.457031 70.695312 41.324219 70.355469 41.207031 C 70.179688 41.148438 70.007812 41.09375 69.832031 41.039062 C 69.742188 41.019531 69.65625 40.996094 69.566406 40.976562 L 69.445312 40.953125 L 69.390625 40.941406 L 69.359375 40.941406 L 69.371094 40.941406 L 67.941406 39.855469 C 67.921875 39.460938 67.878906 39.066406 67.777344 38.691406 C 67.679688 38.320312 67.539062 37.957031 67.351562 37.617188 C 66.96875 36.9375 66.386719 36.324219 65.605469 35.816406 C 65.222656 35.566406 64.785156 35.347656 64.324219 35.148438 C 64.09375 35.050781 63.851562 34.960938 63.597656 34.875 C 63.347656 34.785156 63.09375 34.710938 62.832031 34.632812 C 62.699219 34.601562 62.566406 34.566406 62.433594 34.535156 C 62.304688 34.5 62.171875 34.46875 62.03125 34.4375 C 61.753906 34.371094 61.480469 34.324219 61.195312 34.269531 C 60.722656 34.195312 60.253906 34.117188 59.757812 34.074219 C 59.847656 34.160156 59.933594 34.25 60.023438 34.324219 L 61.25 35.5 L 62.492188 36.683594 C 63.324219 37.476562 64.148438 38.265625 64.980469 39.078125 C 64.367188 38.867188 63.785156 38.625 63.203125 38.375 C 62.917969 38.253906 62.621094 38.121094 62.335938 37.992188 L 61.492188 37.59375 C 60.363281 37.058594 59.277344 36.476562 58.210938 35.871094 C 57.148438 35.257812 56.117188 34.621094 55.117188 33.929688 C 54.117188 33.25 53.152344 32.527344 52.230469 31.757812 C 52 31.5625 51.769531 31.375 51.550781 31.175781 C 51.320312 30.980469 51.101562 30.78125 50.882812 30.574219 L 50.574219 30.300781 C 50.476562 30.210938 50.378906 30.125 50.277344 30.035156 C 50.082031 29.859375 49.882812 29.695312 49.675781 29.542969 C 49.269531 29.222656 48.851562 28.929688 48.425781 28.664062 C 47.996094 28.410156 47.558594 28.183594 47.117188 28.015625 C 46.679688 27.839844 46.253906 27.730469 45.824219 27.664062 C 45.40625 27.601562 44.992188 27.601562 44.574219 27.644531 C 44.15625 27.6875 43.730469 27.796875 43.277344 27.953125 C 43.046875 28.027344 42.828125 28.125 42.585938 28.238281 C 42.355469 28.347656 42.117188 28.46875 41.886719 28.585938 C 41.765625 28.652344 41.644531 28.71875 41.535156 28.796875 C 41.414062 28.863281 41.292969 28.9375 41.183594 29.015625 C 41.039062 29.101562 40.886719 29.222656 40.722656 29.355469 C 40.402344 29.628906 40.085938 29.992188 39.800781 30.386719 C 39.515625 30.78125 39.242188 31.210938 39 31.660156 C 38.757812 32.109375 38.550781 32.582031 38.363281 33.054688 C 38.175781 33.535156 38.011719 34.019531 37.878906 34.511719 C 37.738281 35.007812 37.628906 35.511719 37.539062 36.003906 C 37.355469 37.015625 37.277344 38.023438 37.277344 39.03125 C 37.289062 40.710938 37.5625 42.378906 38.167969 43.96875 C 38.175781 43.96875 38.1875 43.960938 38.1875 43.960938 C 38.527344 43.847656 38.867188 43.738281 39.207031 43.628906 C 39.164062 43.332031 39.140625 43.046875 39.121094 42.753906 C 39.078125 42.160156 39.066406 41.566406 39.078125 40.976562 C 39.085938 40.382812 39.121094 39.789062 39.1875 39.199219 C 39.253906 38.605469 39.339844 38.023438 39.449219 37.429688 C 39.558594 36.847656 39.703125 36.257812 39.855469 35.675781 L 39.976562 35.238281 C 40.019531 35.09375 40.0625 34.953125 40.117188 34.808594 C 40.207031 34.523438 40.316406 34.238281 40.414062 33.953125 C 40.84375 32.8125 41.371094 31.691406 41.996094 30.605469 C 41.621094 31.738281 41.359375 32.878906 41.207031 34.007812 C 41.171875 34.292969 41.128906 34.566406 41.105469 34.851562 C 41.09375 34.996094 41.085938 35.136719 41.074219 35.269531 L 41.050781 35.6875 C 41.03125 36.246094 41.019531 36.804688 41.050781 37.355469 C 41.074219 37.902344 41.117188 38.453125 41.195312 38.988281 C 41.269531 39.527344 41.359375 40.0625 41.480469 40.589844 C 41.601562 41.117188 41.742188 41.632812 41.90625 42.136719 C 41.996094 42.390625 42.082031 42.640625 42.171875 42.882812 C 42.171875 42.894531 42.183594 42.90625 42.183594 42.917969 C 42.597656 42.839844 43.027344 42.785156 43.445312 42.730469 C 43.445312 42.6875 43.453125 42.632812 43.453125 42.578125 C 43.488281 42.214844 43.53125 41.851562 43.597656 41.5 C 43.71875 40.789062 43.871094 40.085938 44.078125 39.394531 L 44.15625 39.132812 L 44.246094 38.867188 C 44.300781 38.691406 44.355469 38.527344 44.421875 38.351562 C 44.550781 38.011719 44.671875 37.671875 44.824219 37.332031 C 45.109375 36.664062 45.460938 36.003906 45.824219 35.355469 C 45.714844 36.039062 45.625 36.707031 45.617188 37.375 C 45.59375 37.707031 45.605469 38.035156 45.617188 38.363281 C 45.617188 38.527344 45.636719 38.691406 45.636719 38.855469 L 45.648438 39.097656 L 45.671875 39.339844 C 45.738281 39.988281 45.847656 40.613281 45.988281 41.226562 C 46.066406 41.535156 46.152344 41.839844 46.242188 42.136719 C 46.285156 42.257812 46.328125 42.390625 46.371094 42.511719 L 47.339844 42.511719 C 47.347656 42.410156 47.359375 42.324219 47.371094 42.226562 C 47.425781 41.742188 47.503906 41.269531 47.625 40.808594 L 47.667969 40.632812 L 47.710938 40.460938 C 47.746094 40.339844 47.777344 40.230469 47.808594 40.109375 C 47.886719 39.878906 47.953125 39.648438 48.039062 39.425781 C 48.195312 38.976562 48.402344 38.527344 48.609375 38.101562 C 48.664062 38.539062 48.722656 38.96875 48.832031 39.382812 C 48.875 39.59375 48.941406 39.800781 49.007812 40 C 49.039062 40.097656 49.070312 40.195312 49.105469 40.304688 L 49.160156 40.460938 L 49.214844 40.601562 C 49.367188 40.996094 49.542969 41.378906 49.742188 41.742188 C 49.839844 41.929688 49.949219 42.105469 50.058594 42.28125 C 50.113281 42.367188 50.167969 42.457031 50.234375 42.53125 C 50.269531 42.578125 50.289062 42.609375 50.324219 42.652344 C 50.332031 42.664062 50.34375 42.6875 50.355469 42.699219 C 50.792969 42.742188 51.222656 42.796875 51.640625 42.863281 C 52.679688 43.015625 53.703125 43.214844 54.699219 43.453125 C 55.699219 43.683594 56.664062 43.96875 57.609375 44.289062 C 58.078125 44.441406 58.539062 44.605469 59 44.792969 C 59.460938 44.96875 59.902344 45.15625 60.351562 45.351562 C 61.230469 45.746094 62.085938 46.164062 62.875 46.65625 C 60.867188 46.328125 58.871094 46.066406 56.871094 45.867188 C 55.875 45.769531 54.886719 45.691406 53.886719 45.636719 C 53.371094 45.605469 52.867188 45.59375 52.363281 45.570312 C 51.878906 45.5625 51.410156 45.550781 50.925781 45.550781 C 49.9375 45.550781 48.960938 45.582031 47.984375 45.636719 C 47.898438 45.648438 47.800781 45.648438 47.710938 45.660156 C 47.558594 45.671875 47.402344 45.679688 47.261719 45.691406 L 47.074219 45.703125 L 46.898438 45.726562 L 46.539062 45.757812 L 46.175781 45.792969 C 46.054688 45.800781 45.933594 45.824219 45.8125 45.835938 C 45.570312 45.867188 45.339844 45.890625 45.101562 45.933594 L 44.398438 46.042969 L 44.222656 46.078125 L 44.046875 46.109375 L 43.34375 46.242188 C 43.222656 46.261719 43.113281 46.296875 43.003906 46.316406 C 42.773438 46.371094 42.542969 46.425781 42.324219 46.484375 L 41.65625 46.667969 L 41.492188 46.714844 C 41.4375 46.722656 41.378906 46.746094 41.324219 46.769531 L 40.996094 46.878906 C 40.941406 46.886719 40.886719 46.910156 40.832031 46.921875 C 40.722656 47.230469 40.601562 47.546875 40.480469 47.855469 C 40.480469 47.863281 40.46875 47.875 40.46875 47.886719 L 40.128906 48.785156 L 40.109375 48.832031 L 39.734375 49.773438 C 39.570312 50.191406 39.40625 50.609375 39.242188 51.023438 C 39.253906 51.023438 39.261719 51.023438 39.285156 51.023438 C 39.855469 51.003906 40.414062 50.992188 40.976562 50.992188 C 41.261719 50.992188 41.535156 50.992188 41.820312 51.003906 C 42.105469 51.003906 42.378906 51.023438 42.652344 51.023438 C 43.214844 51.046875 43.761719 51.078125 44.320312 51.125 C 44.59375 51.144531 44.871094 51.167969 45.144531 51.199219 L 45.5625 51.246094 L 45.96875 51.289062 C 46.515625 51.355469 47.054688 51.429688 47.589844 51.519531 L 48.390625 51.660156 C 48.65625 51.703125 48.917969 51.769531 49.183594 51.824219 C 50.234375 52.054688 51.265625 52.320312 52.253906 52.660156 C 52.375 52.703125 52.507812 52.738281 52.625 52.78125 L 52.988281 52.910156 L 53.351562 53.042969 C 53.472656 53.085938 53.59375 53.132812 53.714844 53.1875 C 53.953125 53.285156 54.183594 53.382812 54.414062 53.484375 C 54.535156 53.527344 54.644531 53.582031 54.765625 53.636719 L 55.105469 53.800781 C 55.335938 53.910156 55.554688 54.007812 55.777344 54.140625 L 56.421875 54.492188 C 56.632812 54.613281 56.839844 54.746094 57.046875 54.875 L 57.355469 55.074219 L 57.652344 55.28125 C 57.847656 55.414062 58.035156 55.554688 58.234375 55.699219 C 58.417969 55.839844 58.605469 55.996094 58.78125 56.136719 L 59.054688 56.355469 C 59.144531 56.433594 59.222656 56.511719 59.308594 56.585938 C 59.472656 56.742188 59.636719 56.90625 59.800781 57.058594 C 59.5625 56.972656 59.332031 56.882812 59.101562 56.796875 C 58.980469 56.753906 58.871094 56.707031 58.75 56.664062 L 58.398438 56.542969 C 58.15625 56.464844 57.925781 56.378906 57.695312 56.300781 C 57.453125 56.226562 57.214844 56.160156 56.984375 56.082031 L 56.632812 55.972656 L 56.269531 55.875 L 55.554688 55.675781 C 55.074219 55.566406 54.601562 55.433594 54.109375 55.335938 L 53.746094 55.261719 C 53.625 55.238281 53.503906 55.203125 53.382812 55.183594 C 53.140625 55.140625 52.890625 55.09375 52.648438 55.050781 C 52.40625 55.007812 52.15625 54.976562 51.914062 54.929688 L 51.550781 54.875 C 51.429688 54.855469 51.300781 54.84375 51.179688 54.832031 C 50.191406 54.6875 49.191406 54.601562 48.195312 54.523438 C 47.195312 54.449219 46.1875 54.414062 45.175781 54.402344 L 44.421875 54.402344 C 44.167969 54.402344 43.914062 54.402344 43.664062 54.414062 C 43.410156 54.425781 43.15625 54.425781 42.90625 54.4375 C 42.652344 54.449219 42.402344 54.449219 42.148438 54.457031 C 41.644531 54.480469 41.140625 54.503906 40.625 54.535156 C 40.371094 54.558594 40.117188 54.570312 39.867188 54.589844 L 39.484375 54.625 L 39.109375 54.65625 C 38.605469 54.699219 38.101562 54.753906 37.605469 54.820312 C 37.355469 54.855469 37.113281 54.886719 36.871094 54.917969 C 36.75 54.929688 36.628906 54.953125 36.507812 54.976562 L 36.332031 54.996094 L 36.257812 55.007812 L 36.191406 55.019531 C 35.894531 55.074219 35.585938 55.085938 35.28125 55.039062 C 34.050781 54.863281 33.347656 53.898438 33.722656 52.878906 L 33.746094 52.8125 C 33.976562 52.1875 34.214844 51.550781 34.457031 50.925781 C 34.699219 50.300781 34.941406 49.675781 35.191406 49.039062 L 35.566406 48.09375 L 35.949219 47.152344 C 36.136719 46.679688 36.332031 46.21875 36.53125 45.746094 C 35.808594 44.871094 35.226562 43.894531 34.765625 42.882812 C 34.292969 41.832031 33.953125 40.722656 33.753906 39.59375 C 33.546875 38.460938 33.480469 37.289062 33.546875 36.113281 C 33.578125 35.523438 33.644531 34.929688 33.746094 34.324219 C 33.84375 33.734375 33.984375 33.128906 34.160156 32.527344 C 34.324219 31.921875 34.535156 31.320312 34.808594 30.707031 Z M 34.808594 30.707031 " fill-opacity="1" fill-rule="nonzero"/></g><g fill="#4d433a" fill-opacity="1"><g transform="translate(96.992634, 76.545204)"><g><path d="M 6.15625 -1.34375 C 6.15625 -1.15625 6.117188 -0.988281 6.046875 -0.84375 C 5.984375 -0.707031 5.890625 -0.585938 5.765625 -0.484375 C 5.648438 -0.378906 5.507812 -0.289062 5.34375 -0.21875 C 5.1875 -0.144531 5.015625 -0.0820312 4.828125 -0.03125 C 4.640625 0.0078125 4.4375 0.0390625 4.21875 0.0625 C 4.007812 0.0820312 3.796875 0.09375 3.578125 0.09375 C 3.265625 0.09375 2.957031 0.0703125 2.65625 0.03125 C 2.351562 0 2.066406 -0.0351562 1.796875 -0.078125 C 1.535156 -0.128906 1.300781 -0.179688 1.09375 -0.234375 C 0.894531 -0.285156 0.742188 -0.335938 0.640625 -0.390625 C 0.597656 -0.410156 0.566406 -0.4375 0.546875 -0.46875 C 0.535156 -0.5 0.53125 -0.53125 0.53125 -0.5625 C 0.53125 -0.59375 0.535156 -0.617188 0.546875 -0.640625 C 0.566406 -0.671875 0.597656 -0.6875 0.640625 -0.6875 C 0.648438 -0.6875 0.671875 -0.679688 0.703125 -0.671875 C 0.804688 -0.617188 0.960938 -0.566406 1.171875 -0.515625 C 1.390625 -0.460938 1.628906 -0.410156 1.890625 -0.359375 C 2.160156 -0.316406 2.441406 -0.28125 2.734375 -0.25 C 3.035156 -0.21875 3.335938 -0.203125 3.640625 -0.203125 C 3.921875 -0.203125 4.191406 -0.21875 4.453125 -0.25 C 4.710938 -0.289062 4.941406 -0.351562 5.140625 -0.4375 C 5.335938 -0.53125 5.492188 -0.648438 5.609375 -0.796875 C 5.722656 -0.941406 5.78125 -1.125 5.78125 -1.34375 C 5.78125 -1.519531 5.726562 -1.664062 5.625 -1.78125 C 5.53125 -1.90625 5.398438 -2 5.234375 -2.0625 C 5.066406 -2.132812 4.867188 -2.1875 4.640625 -2.21875 C 4.410156 -2.257812 4.164062 -2.289062 3.90625 -2.3125 C 3.65625 -2.332031 3.394531 -2.34375 3.125 -2.34375 C 2.851562 -2.351562 2.59375 -2.367188 2.34375 -2.390625 C 2.09375 -2.421875 1.851562 -2.457031 1.625 -2.5 C 1.394531 -2.539062 1.191406 -2.601562 1.015625 -2.6875 C 0.847656 -2.769531 0.710938 -2.878906 0.609375 -3.015625 C 0.515625 -3.148438 0.46875 -3.316406 0.46875 -3.515625 C 0.46875 -3.691406 0.503906 -3.851562 0.578125 -4 C 0.648438 -4.144531 0.742188 -4.265625 0.859375 -4.359375 C 0.984375 -4.460938 1.125 -4.546875 1.28125 -4.609375 C 1.445312 -4.679688 1.628906 -4.738281 1.828125 -4.78125 C 2.023438 -4.820312 2.226562 -4.847656 2.4375 -4.859375 C 2.65625 -4.878906 2.875 -4.890625 3.09375 -4.890625 C 3.351562 -4.890625 3.613281 -4.875 3.875 -4.84375 C 4.132812 -4.820312 4.375 -4.789062 4.59375 -4.75 C 4.820312 -4.707031 5.023438 -4.660156 5.203125 -4.609375 C 5.390625 -4.566406 5.539062 -4.519531 5.65625 -4.46875 C 5.675781 -4.457031 5.691406 -4.441406 5.703125 -4.421875 C 5.710938 -4.398438 5.71875 -4.375 5.71875 -4.34375 C 5.71875 -4.300781 5.703125 -4.265625 5.671875 -4.234375 C 5.648438 -4.203125 5.613281 -4.1875 5.5625 -4.1875 C 5.53125 -4.1875 5.503906 -4.191406 5.484375 -4.203125 C 5.335938 -4.265625 5.171875 -4.320312 4.984375 -4.375 C 4.796875 -4.425781 4.597656 -4.46875 4.390625 -4.5 C 4.191406 -4.53125 3.976562 -4.554688 3.75 -4.578125 C 3.53125 -4.597656 3.316406 -4.609375 3.109375 -4.609375 C 2.804688 -4.609375 2.519531 -4.585938 2.25 -4.546875 C 1.976562 -4.515625 1.738281 -4.457031 1.53125 -4.375 C 1.320312 -4.300781 1.15625 -4.191406 1.03125 -4.046875 C 0.90625 -3.910156 0.84375 -3.738281 0.84375 -3.53125 C 0.84375 -3.375 0.890625 -3.242188 0.984375 -3.140625 C 1.085938 -3.046875 1.222656 -2.96875 1.390625 -2.90625 C 1.554688 -2.851562 1.753906 -2.8125 1.984375 -2.78125 C 2.210938 -2.75 2.453125 -2.722656 2.703125 -2.703125 C 2.960938 -2.691406 3.226562 -2.675781 3.5 -2.65625 C 3.769531 -2.644531 4.03125 -2.625 4.28125 -2.59375 C 4.539062 -2.5625 4.78125 -2.519531 5 -2.46875 C 5.226562 -2.414062 5.425781 -2.34375 5.59375 -2.25 C 5.769531 -2.15625 5.90625 -2.03125 6 -1.875 C 6.101562 -1.726562 6.15625 -1.550781 6.15625 -1.34375 Z M 6.15625 -1.34375 "/></g></g><g transform="translate(103.626067, 76.545204)"><g><path d="M 0.921875 -0.96875 C 0.921875 -0.832031 0.957031 -0.710938 1.03125 -0.609375 C 1.101562 -0.515625 1.203125 -0.4375 1.328125 -0.375 C 1.453125 -0.320312 1.597656 -0.28125 1.765625 -0.25 C 1.941406 -0.226562 2.132812 -0.21875 2.34375 -0.21875 C 2.59375 -0.21875 2.816406 -0.234375 3.015625 -0.265625 C 3.210938 -0.296875 3.382812 -0.335938 3.53125 -0.390625 C 3.675781 -0.453125 3.796875 -0.515625 3.890625 -0.578125 C 3.992188 -0.640625 4.082031 -0.703125 4.15625 -0.765625 L 4.15625 -1.640625 C 3.863281 -1.671875 3.5625 -1.703125 3.25 -1.734375 C 2.945312 -1.773438 2.640625 -1.796875 2.328125 -1.796875 C 2.109375 -1.796875 1.910156 -1.78125 1.734375 -1.75 C 1.554688 -1.726562 1.40625 -1.6875 1.28125 -1.625 C 1.164062 -1.5625 1.078125 -1.476562 1.015625 -1.375 C 0.953125 -1.269531 0.921875 -1.132812 0.921875 -0.96875 Z M 2.75 -3.140625 C 2.476562 -3.140625 2.242188 -3.128906 2.046875 -3.109375 C 1.847656 -3.097656 1.679688 -3.078125 1.546875 -3.046875 C 1.410156 -3.023438 1.289062 -3 1.1875 -2.96875 C 1.09375 -2.945312 1.007812 -2.925781 0.9375 -2.90625 C 0.90625 -2.90625 0.875 -2.921875 0.84375 -2.953125 C 0.820312 -2.992188 0.8125 -3.03125 0.8125 -3.0625 C 0.8125 -3.101562 0.828125 -3.132812 0.859375 -3.15625 C 0.878906 -3.164062 0.929688 -3.179688 1.015625 -3.203125 C 1.097656 -3.234375 1.21875 -3.257812 1.375 -3.28125 C 1.53125 -3.3125 1.722656 -3.335938 1.953125 -3.359375 C 2.179688 -3.378906 2.453125 -3.390625 2.765625 -3.390625 C 2.910156 -3.390625 3.050781 -3.378906 3.1875 -3.359375 C 3.332031 -3.335938 3.46875 -3.300781 3.59375 -3.25 C 3.726562 -3.207031 3.847656 -3.140625 3.953125 -3.046875 C 4.066406 -2.960938 4.160156 -2.851562 4.234375 -2.71875 C 4.316406 -2.582031 4.378906 -2.414062 4.421875 -2.21875 C 4.472656 -2.03125 4.5 -1.804688 4.5 -1.546875 L 4.5 -0.296875 C 4.5 -0.265625 4.492188 -0.226562 4.484375 -0.1875 C 4.484375 -0.15625 4.476562 -0.125 4.46875 -0.09375 C 4.457031 -0.0703125 4.441406 -0.0507812 4.421875 -0.03125 C 4.398438 -0.0078125 4.367188 0 4.328125 0 C 4.253906 0 4.207031 -0.03125 4.1875 -0.09375 C 4.164062 -0.15625 4.15625 -0.226562 4.15625 -0.3125 L 4.15625 -0.609375 C 4.09375 -0.546875 4.015625 -0.472656 3.921875 -0.390625 C 3.828125 -0.316406 3.707031 -0.242188 3.5625 -0.171875 C 3.425781 -0.109375 3.257812 -0.0546875 3.0625 -0.015625 C 2.875 0.0234375 2.644531 0.046875 2.375 0.046875 C 2.125 0.046875 1.890625 0.03125 1.671875 0 C 1.453125 -0.0390625 1.257812 -0.101562 1.09375 -0.1875 C 0.9375 -0.269531 0.8125 -0.375 0.71875 -0.5 C 0.625 -0.625 0.578125 -0.78125 0.578125 -0.96875 C 0.578125 -1.175781 0.617188 -1.347656 0.703125 -1.484375 C 0.796875 -1.628906 0.921875 -1.742188 1.078125 -1.828125 C 1.234375 -1.910156 1.414062 -1.96875 1.625 -2 C 1.832031 -2.039062 2.054688 -2.0625 2.296875 -2.0625 C 2.472656 -2.0625 2.648438 -2.050781 2.828125 -2.03125 C 3.015625 -2.019531 3.191406 -2 3.359375 -1.96875 C 3.523438 -1.945312 3.675781 -1.921875 3.8125 -1.890625 C 3.945312 -1.859375 4.0625 -1.816406 4.15625 -1.765625 C 4.15625 -2.054688 4.113281 -2.289062 4.03125 -2.46875 C 3.957031 -2.644531 3.851562 -2.78125 3.71875 -2.875 C 3.59375 -2.976562 3.445312 -3.046875 3.28125 -3.078125 C 3.113281 -3.117188 2.9375 -3.140625 2.75 -3.140625 Z M 2.75 -3.140625 "/></g></g><g transform="translate(108.756209, 76.545204)"><g><path d="M 2.203125 0.046875 C 2.140625 0.046875 2.09375 0.0234375 2.0625 -0.015625 C 2.03125 -0.0546875 2.003906 -0.09375 1.984375 -0.125 L 0.3125 -3 C 0.289062 -3.019531 0.273438 -3.039062 0.265625 -3.0625 C 0.265625 -3.09375 0.265625 -3.117188 0.265625 -3.140625 C 0.265625 -3.191406 0.273438 -3.226562 0.296875 -3.25 C 0.328125 -3.28125 0.363281 -3.296875 0.40625 -3.296875 C 0.4375 -3.296875 0.46875 -3.285156 0.5 -3.265625 C 0.539062 -3.242188 0.570312 -3.210938 0.59375 -3.171875 L 2.203125 -0.3125 L 3.8125 -3.171875 C 3.84375 -3.210938 3.875 -3.242188 3.90625 -3.265625 C 3.9375 -3.285156 3.96875 -3.296875 4 -3.296875 C 4.039062 -3.296875 4.078125 -3.28125 4.109375 -3.25 C 4.140625 -3.226562 4.15625 -3.191406 4.15625 -3.140625 C 4.15625 -3.097656 4.140625 -3.050781 4.109375 -3 L 2.421875 -0.125 C 2.398438 -0.09375 2.375 -0.0546875 2.34375 -0.015625 C 2.3125 0.0234375 2.265625 0.046875 2.203125 0.046875 Z M 2.203125 0.046875 "/></g></g><g transform="translate(113.167011, 76.545204)"><g><path d="M 2.671875 0.046875 C 2.273438 0.046875 1.941406 0.0078125 1.671875 -0.0625 C 1.398438 -0.144531 1.175781 -0.257812 1 -0.40625 C 0.832031 -0.5625 0.710938 -0.742188 0.640625 -0.953125 C 0.566406 -1.160156 0.53125 -1.394531 0.53125 -1.65625 C 0.53125 -1.957031 0.570312 -2.21875 0.65625 -2.4375 C 0.738281 -2.65625 0.867188 -2.832031 1.046875 -2.96875 C 1.222656 -3.113281 1.445312 -3.21875 1.71875 -3.28125 C 1.988281 -3.351562 2.304688 -3.390625 2.671875 -3.390625 C 3.035156 -3.390625 3.351562 -3.351562 3.625 -3.28125 C 3.894531 -3.21875 4.117188 -3.113281 4.296875 -2.96875 C 4.472656 -2.832031 4.601562 -2.65625 4.6875 -2.4375 C 4.769531 -2.21875 4.8125 -1.957031 4.8125 -1.65625 C 4.8125 -1.394531 4.773438 -1.160156 4.703125 -0.953125 C 4.628906 -0.742188 4.507812 -0.5625 4.34375 -0.40625 C 4.175781 -0.257812 3.953125 -0.144531 3.671875 -0.0625 C 3.398438 0.0078125 3.066406 0.046875 2.671875 0.046875 Z M 2.671875 -0.21875 C 2.929688 -0.21875 3.15625 -0.234375 3.34375 -0.265625 C 3.539062 -0.304688 3.703125 -0.359375 3.828125 -0.421875 C 3.960938 -0.492188 4.070312 -0.578125 4.15625 -0.671875 C 4.238281 -0.765625 4.300781 -0.863281 4.34375 -0.96875 C 4.394531 -1.082031 4.425781 -1.195312 4.4375 -1.3125 C 4.457031 -1.425781 4.46875 -1.539062 4.46875 -1.65625 C 4.46875 -1.925781 4.429688 -2.15625 4.359375 -2.34375 C 4.296875 -2.53125 4.191406 -2.679688 4.046875 -2.796875 C 3.898438 -2.910156 3.710938 -2.992188 3.484375 -3.046875 C 3.253906 -3.109375 2.984375 -3.140625 2.671875 -3.140625 C 2.359375 -3.140625 2.085938 -3.109375 1.859375 -3.046875 C 1.628906 -2.992188 1.441406 -2.910156 1.296875 -2.796875 C 1.148438 -2.679688 1.039062 -2.53125 0.96875 -2.34375 C 0.90625 -2.15625 0.875 -1.925781 0.875 -1.65625 C 0.875 -1.539062 0.878906 -1.425781 0.890625 -1.3125 C 0.910156 -1.195312 0.941406 -1.082031 0.984375 -0.96875 C 1.035156 -0.863281 1.101562 -0.765625 1.1875 -0.671875 C 1.269531 -0.578125 1.378906 -0.492188 1.515625 -0.421875 C 1.648438 -0.359375 1.8125 -0.304688 2 -0.265625 C 2.1875 -0.234375 2.410156 -0.21875 2.671875 -0.21875 Z M 2.671875 -0.21875 "/></g></g><g transform="translate(118.508216, 76.545204)"><g><path d="M 3.21875 -3.28125 C 3.25 -3.269531 3.269531 -3.253906 3.28125 -3.234375 C 3.300781 -3.210938 3.3125 -3.1875 3.3125 -3.15625 C 3.3125 -3.113281 3.296875 -3.078125 3.265625 -3.046875 C 3.242188 -3.015625 3.210938 -3 3.171875 -3 C 3.148438 -3 3.140625 -3 3.140625 -3 C 3.140625 -3.007812 3.128906 -3.015625 3.109375 -3.015625 C 3.003906 -3.046875 2.898438 -3.066406 2.796875 -3.078125 C 2.691406 -3.097656 2.582031 -3.109375 2.46875 -3.109375 C 2.289062 -3.109375 2.125 -3.09375 1.96875 -3.0625 C 1.820312 -3.03125 1.6875 -2.976562 1.5625 -2.90625 C 1.4375 -2.84375 1.328125 -2.757812 1.234375 -2.65625 C 1.140625 -2.550781 1.070312 -2.425781 1.03125 -2.28125 L 1.03125 -0.296875 C 1.03125 -0.222656 1.019531 -0.15625 1 -0.09375 C 0.976562 -0.03125 0.929688 0 0.859375 0 C 0.816406 0 0.78125 -0.00390625 0.75 -0.015625 C 0.726562 -0.0351562 0.710938 -0.0625 0.703125 -0.09375 C 0.691406 -0.125 0.6875 -0.15625 0.6875 -0.1875 C 0.6875 -0.226562 0.6875 -0.265625 0.6875 -0.296875 L 0.6875 -3.0625 C 0.6875 -3.125 0.695312 -3.175781 0.71875 -3.21875 C 0.738281 -3.269531 0.789062 -3.296875 0.875 -3.296875 C 0.9375 -3.296875 0.976562 -3.269531 1 -3.21875 C 1.019531 -3.175781 1.03125 -3.125 1.03125 -3.0625 L 1.03125 -2.5625 C 1.070312 -2.738281 1.148438 -2.878906 1.265625 -2.984375 C 1.378906 -3.097656 1.503906 -3.179688 1.640625 -3.234375 C 1.785156 -3.296875 1.929688 -3.335938 2.078125 -3.359375 C 2.222656 -3.378906 2.351562 -3.390625 2.46875 -3.390625 C 2.570312 -3.390625 2.660156 -3.382812 2.734375 -3.375 C 2.816406 -3.363281 2.882812 -3.351562 2.9375 -3.34375 C 3 -3.34375 3.050781 -3.332031 3.09375 -3.3125 C 3.132812 -3.300781 3.175781 -3.289062 3.21875 -3.28125 Z M 3.21875 -3.28125 "/></g></g></g><g fill="#4d433a" fill-opacity="1"><g transform="translate(69.694807, 69.902069)"><g><path d="M 4.890625 0.234375 C 4.242188 0.234375 3.632812 0.132812 3.0625 -0.0625 C 2.5 -0.257812 2 -0.519531 1.5625 -0.84375 C 1.125 -1.164062 0.78125 -1.539062 0.53125 -1.96875 C 0.28125 -2.394531 0.15625 -2.835938 0.15625 -3.296875 C 0.15625 -3.484375 0.253906 -3.6875 0.453125 -3.90625 C 0.648438 -4.125 0.90625 -4.335938 1.21875 -4.546875 C 1.539062 -4.765625 1.875 -4.957031 2.21875 -5.125 C 2.5625 -5.300781 2.878906 -5.441406 3.171875 -5.546875 C 3.472656 -5.660156 3.703125 -5.710938 3.859375 -5.703125 C 4.097656 -5.691406 4.296875 -5.613281 4.453125 -5.46875 C 4.617188 -5.320312 4.679688 -5.097656 4.640625 -4.796875 C 4.585938 -4.398438 4.546875 -3.976562 4.515625 -3.53125 C 4.484375 -3.082031 4.515625 -2.664062 4.609375 -2.28125 C 4.703125 -1.894531 4.898438 -1.578125 5.203125 -1.328125 C 5.503906 -1.085938 5.953125 -0.96875 6.546875 -0.96875 C 6.941406 -0.96875 7.304688 -1.054688 7.640625 -1.234375 C 7.984375 -1.410156 8.257812 -1.65625 8.46875 -1.96875 C 8.675781 -2.289062 8.78125 -2.644531 8.78125 -3.03125 C 8.78125 -3.550781 8.644531 -3.988281 8.375 -4.34375 C 8.101562 -4.695312 7.75 -4.988281 7.3125 -5.21875 C 6.882812 -5.457031 6.414062 -5.65625 5.90625 -5.8125 C 5.144531 -6.039062 4.425781 -6.285156 3.75 -6.546875 C 3.070312 -6.804688 2.472656 -7.117188 1.953125 -7.484375 C 1.429688 -7.859375 1.019531 -8.316406 0.71875 -8.859375 C 0.414062 -9.410156 0.265625 -10.085938 0.265625 -10.890625 C 0.265625 -11.535156 0.390625 -12.140625 0.640625 -12.703125 C 0.890625 -13.265625 1.226562 -13.757812 1.65625 -14.1875 C 2.09375 -14.625 2.597656 -14.960938 3.171875 -15.203125 C 3.742188 -15.441406 4.351562 -15.5625 5 -15.5625 C 5.394531 -15.5625 5.773438 -15.507812 6.140625 -15.40625 C 6.503906 -15.300781 6.875 -15.195312 7.25 -15.09375 C 7.625 -14.988281 8.046875 -14.9375 8.515625 -14.9375 C 8.878906 -14.9375 9.164062 -14.988281 9.375 -15.09375 C 9.582031 -15.195312 9.757812 -15.300781 9.90625 -15.40625 C 10.050781 -15.507812 10.203125 -15.5625 10.359375 -15.5625 C 10.546875 -15.5625 10.660156 -15.457031 10.703125 -15.25 C 10.753906 -15.039062 10.75 -14.773438 10.6875 -14.453125 C 10.625 -14.140625 10.515625 -13.800781 10.359375 -13.4375 C 10.210938 -13.070312 10.023438 -12.726562 9.796875 -12.40625 C 9.578125 -12.082031 9.328125 -11.816406 9.046875 -11.609375 C 8.773438 -11.410156 8.484375 -11.3125 8.171875 -11.3125 C 7.609375 -11.3125 7.085938 -11.398438 6.609375 -11.578125 C 6.140625 -11.765625 5.679688 -11.976562 5.234375 -12.21875 C 4.796875 -12.46875 4.347656 -12.6875 3.890625 -12.875 C 3.441406 -13.0625 2.960938 -13.15625 2.453125 -13.15625 C 2.160156 -13.15625 1.914062 -13.046875 1.71875 -12.828125 C 1.519531 -12.617188 1.421875 -12.367188 1.421875 -12.078125 C 1.421875 -11.671875 1.582031 -11.335938 1.90625 -11.078125 C 2.226562 -10.816406 2.644531 -10.609375 3.15625 -10.453125 C 3.675781 -10.296875 4.238281 -10.175781 4.84375 -10.09375 C 5.457031 -10.019531 6.054688 -9.957031 6.640625 -9.90625 C 7.492188 -9.820312 8.242188 -9.585938 8.890625 -9.203125 C 9.546875 -8.816406 10.050781 -8.316406 10.40625 -7.703125 C 10.769531 -7.085938 10.953125 -6.382812 10.953125 -5.59375 C 10.953125 -4.90625 10.832031 -4.21875 10.59375 -3.53125 C 10.363281 -2.851562 10.003906 -2.226562 9.515625 -1.65625 C 9.035156 -1.09375 8.410156 -0.632812 7.640625 -0.28125 C 6.878906 0.0625 5.960938 0.234375 4.890625 0.234375 Z M 4.890625 0.234375 "/></g></g></g><g fill="#4d433a" fill-opacity="1"><g transform="translate(81.042012, 69.902069)"><g><path d="M 0.390625 -5.078125 C 0.390625 -6.203125 0.597656 -7.203125 1.015625 -8.078125 C 1.429688 -8.960938 2.046875 -9.660156 2.859375 -10.171875 C 3.679688 -10.691406 4.691406 -10.953125 5.890625 -10.953125 C 6.796875 -10.953125 7.566406 -10.757812 8.203125 -10.375 C 8.847656 -9.988281 9.332031 -9.484375 9.65625 -8.859375 C 9.988281 -8.234375 10.15625 -7.566406 10.15625 -6.859375 C 10.15625 -6.347656 10.035156 -5.953125 9.796875 -5.671875 C 9.554688 -5.390625 9.226562 -5.191406 8.8125 -5.078125 C 8.40625 -4.960938 7.941406 -4.894531 7.421875 -4.875 C 6.898438 -4.851562 6.351562 -4.851562 5.78125 -4.875 C 5.21875 -4.90625 4.664062 -4.921875 4.125 -4.921875 C 4.050781 -4.921875 3.972656 -4.910156 3.890625 -4.890625 C 3.804688 -4.878906 3.765625 -4.804688 3.765625 -4.671875 C 3.765625 -4.535156 3.898438 -4.347656 4.171875 -4.109375 C 4.441406 -3.878906 4.789062 -3.640625 5.21875 -3.390625 C 5.65625 -3.148438 6.117188 -2.945312 6.609375 -2.78125 C 7.097656 -2.625 7.5625 -2.546875 8 -2.546875 C 8.363281 -2.546875 8.660156 -2.585938 8.890625 -2.671875 C 9.117188 -2.753906 9.296875 -2.84375 9.421875 -2.9375 C 9.554688 -3.039062 9.664062 -3.132812 9.75 -3.21875 C 9.84375 -3.300781 9.925781 -3.34375 10 -3.34375 C 10.050781 -3.34375 10.101562 -3.320312 10.15625 -3.28125 C 10.207031 -3.238281 10.234375 -3.148438 10.234375 -3.015625 C 10.234375 -2.734375 10.148438 -2.40625 9.984375 -2.03125 C 9.816406 -1.65625 9.5625 -1.296875 9.21875 -0.953125 C 8.875 -0.609375 8.429688 -0.320312 7.890625 -0.09375 C 7.359375 0.125 6.726562 0.234375 6 0.234375 C 5.257812 0.234375 4.550781 0.101562 3.875 -0.15625 C 3.195312 -0.425781 2.597656 -0.800781 2.078125 -1.28125 C 1.554688 -1.769531 1.144531 -2.332031 0.84375 -2.96875 C 0.539062 -3.613281 0.390625 -4.316406 0.390625 -5.078125 Z M 2.09375 -7.875 C 2.09375 -7.519531 2.148438 -7.171875 2.265625 -6.828125 C 2.390625 -6.484375 2.582031 -6.203125 2.84375 -5.984375 C 3.101562 -5.765625 3.4375 -5.65625 3.84375 -5.65625 C 4.207031 -5.65625 4.570312 -5.664062 4.9375 -5.6875 C 5.300781 -5.71875 5.640625 -5.769531 5.953125 -5.84375 C 6.265625 -5.925781 6.515625 -6.039062 6.703125 -6.1875 C 6.890625 -6.34375 6.984375 -6.550781 6.984375 -6.8125 C 6.984375 -7.207031 6.882812 -7.554688 6.6875 -7.859375 C 6.488281 -8.171875 6.226562 -8.429688 5.90625 -8.640625 C 5.582031 -8.859375 5.242188 -9.019531 4.890625 -9.125 C 4.535156 -9.226562 4.191406 -9.28125 3.859375 -9.28125 C 3.578125 -9.28125 3.300781 -9.222656 3.03125 -9.109375 C 2.757812 -9.003906 2.535156 -8.847656 2.359375 -8.640625 C 2.179688 -8.429688 2.09375 -8.175781 2.09375 -7.875 Z M 2.09375 -7.875 "/></g></g></g><g fill="#4d433a" fill-opacity="1"><g transform="translate(91.591847, 69.902069)"><g><path d="M 0.15625 0 C 0.351562 -0.207031 0.488281 -0.453125 0.5625 -0.734375 C 0.644531 -1.015625 0.6875 -1.375 0.6875 -1.8125 L 0.6875 -8.921875 C 0.6875 -9.359375 0.644531 -9.71875 0.5625 -10 C 0.488281 -10.28125 0.351562 -10.523438 0.15625 -10.734375 L 3.90625 -10.734375 C 4.238281 -10.734375 4.460938 -10.617188 4.578125 -10.390625 C 4.691406 -10.160156 4.75 -9.847656 4.75 -9.453125 L 4.75 -9.203125 C 4.75 -9.015625 4.757812 -8.90625 4.78125 -8.875 C 4.800781 -8.84375 4.828125 -8.828125 4.859375 -8.828125 C 4.972656 -8.828125 5.082031 -8.898438 5.1875 -9.046875 C 5.289062 -9.191406 5.414062 -9.367188 5.5625 -9.578125 C 5.707031 -9.796875 5.890625 -10.007812 6.109375 -10.21875 C 6.335938 -10.425781 6.617188 -10.597656 6.953125 -10.734375 C 7.285156 -10.878906 7.691406 -10.953125 8.171875 -10.953125 C 8.441406 -10.953125 8.722656 -10.914062 9.015625 -10.84375 C 9.316406 -10.78125 9.566406 -10.679688 9.765625 -10.546875 C 9.972656 -10.410156 10.078125 -10.242188 10.078125 -10.046875 C 10.078125 -9.953125 9.988281 -9.734375 9.8125 -9.390625 C 9.632812 -9.046875 9.453125 -8.679688 9.265625 -8.296875 C 9.046875 -7.878906 8.847656 -7.5 8.671875 -7.15625 C 8.503906 -6.8125 8.347656 -6.640625 8.203125 -6.640625 C 8.035156 -6.640625 7.90625 -6.707031 7.8125 -6.84375 C 7.71875 -6.976562 7.617188 -7.132812 7.515625 -7.3125 C 7.421875 -7.488281 7.273438 -7.644531 7.078125 -7.78125 C 6.878906 -7.914062 6.59375 -7.984375 6.21875 -7.984375 C 5.789062 -7.984375 5.472656 -7.875 5.265625 -7.65625 C 5.054688 -7.4375 4.914062 -7.171875 4.84375 -6.859375 C 4.78125 -6.554688 4.75 -6.265625 4.75 -5.984375 L 4.75 -1.8125 C 4.75 -1.375 4.785156 -1.015625 4.859375 -0.734375 C 4.941406 -0.453125 5.082031 -0.207031 5.28125 0 Z M 0.15625 0 "/></g></g></g><g fill="#4d433a" fill-opacity="1"><g transform="translate(101.835009, 69.902069)"><g><path d="M 0.390625 -5.078125 C 0.390625 -6.203125 0.597656 -7.203125 1.015625 -8.078125 C 1.429688 -8.960938 2.046875 -9.660156 2.859375 -10.171875 C 3.679688 -10.691406 4.691406 -10.953125 5.890625 -10.953125 C 6.796875 -10.953125 7.566406 -10.757812 8.203125 -10.375 C 8.847656 -9.988281 9.332031 -9.484375 9.65625 -8.859375 C 9.988281 -8.234375 10.15625 -7.566406 10.15625 -6.859375 C 10.15625 -6.347656 10.035156 -5.953125 9.796875 -5.671875 C 9.554688 -5.390625 9.226562 -5.191406 8.8125 -5.078125 C 8.40625 -4.960938 7.941406 -4.894531 7.421875 -4.875 C 6.898438 -4.851562 6.351562 -4.851562 5.78125 -4.875 C 5.21875 -4.90625 4.664062 -4.921875 4.125 -4.921875 C 4.050781 -4.921875 3.972656 -4.910156 3.890625 -4.890625 C 3.804688 -4.878906 3.765625 -4.804688 3.765625 -4.671875 C 3.765625 -4.535156 3.898438 -4.347656 4.171875 -4.109375 C 4.441406 -3.878906 4.789062 -3.640625 5.21875 -3.390625 C 5.65625 -3.148438 6.117188 -2.945312 6.609375 -2.78125 C 7.097656 -2.625 7.5625 -2.546875 8 -2.546875 C 8.363281 -2.546875 8.660156 -2.585938 8.890625 -2.671875 C 9.117188 -2.753906 9.296875 -2.84375 9.421875 -2.9375 C 9.554688 -3.039062 9.664062 -3.132812 9.75 -3.21875 C 9.84375 -3.300781 9.925781 -3.34375 10 -3.34375 C 10.050781 -3.34375 10.101562 -3.320312 10.15625 -3.28125 C 10.207031 -3.238281 10.234375 -3.148438 10.234375 -3.015625 C 10.234375 -2.734375 10.148438 -2.40625 9.984375 -2.03125 C 9.816406 -1.65625 9.5625 -1.296875 9.21875 -0.953125 C 8.875 -0.609375 8.429688 -0.320312 7.890625 -0.09375 C 7.359375 0.125 6.726562 0.234375 6 0.234375 C 5.257812 0.234375 4.550781 0.101562 3.875 -0.15625 C 3.195312 -0.425781 2.597656 -0.800781 2.078125 -1.28125 C 1.554688 -1.769531 1.144531 -2.332031 0.84375 -2.96875 C 0.539062 -3.613281 0.390625 -4.316406 0.390625 -5.078125 Z M 2.09375 -7.875 C 2.09375 -7.519531 2.148438 -7.171875 2.265625 -6.828125 C 2.390625 -6.484375 2.582031 -6.203125 2.84375 -5.984375 C 3.101562 -5.765625 3.4375 -5.65625 3.84375 -5.65625 C 4.207031 -5.65625 4.570312 -5.664062 4.9375 -5.6875 C 5.300781 -5.71875 5.640625 -5.769531 5.953125 -5.84375 C 6.265625 -5.925781 6.515625 -6.039062 6.703125 -6.1875 C 6.890625 -6.34375 6.984375 -6.550781 6.984375 -6.8125 C 6.984375 -7.207031 6.882812 -7.554688 6.6875 -7.859375 C 6.488281 -8.171875 6.226562 -8.429688 5.90625 -8.640625 C 5.582031 -8.859375 5.242188 -9.019531 4.890625 -9.125 C 4.535156 -9.226562 4.191406 -9.28125 3.859375 -9.28125 C 3.578125 -9.28125 3.300781 -9.222656 3.03125 -9.109375 C 2.757812 -9.003906 2.535156 -8.847656 2.359375 -8.640625 C 2.179688 -8.429688 2.09375 -8.175781 2.09375 -7.875 Z M 2.09375 -7.875 "/></g></g></g><g fill="#4d433a" fill-opacity="1"><g transform="translate(112.384844, 69.902069)"><g><path d="M 5.28125 0 L 0.15625 0 C 0.351562 -0.207031 0.488281 -0.453125 0.5625 -0.734375 C 0.644531 -1.015625 0.6875 -1.375 0.6875 -1.8125 L 0.6875 -8.921875 C 0.6875 -9.359375 0.644531 -9.71875 0.5625 -10 C 0.488281 -10.28125 0.351562 -10.523438 0.15625 -10.734375 L 3.90625 -10.734375 C 4.238281 -10.734375 4.460938 -10.617188 4.578125 -10.390625 C 4.691406 -10.160156 4.75 -9.847656 4.75 -9.453125 L 4.75 -9.203125 C 4.75 -9.015625 4.757812 -8.90625 4.78125 -8.875 C 4.800781 -8.84375 4.828125 -8.828125 4.859375 -8.828125 C 4.984375 -8.828125 5.101562 -8.898438 5.21875 -9.046875 C 5.332031 -9.191406 5.46875 -9.367188 5.625 -9.578125 C 5.789062 -9.796875 5.988281 -10.007812 6.21875 -10.21875 C 6.445312 -10.425781 6.738281 -10.597656 7.09375 -10.734375 C 7.445312 -10.878906 7.882812 -10.953125 8.40625 -10.953125 C 8.96875 -10.953125 9.414062 -10.84375 9.75 -10.625 C 10.09375 -10.40625 10.359375 -10.113281 10.546875 -9.75 C 10.734375 -9.394531 10.859375 -9.003906 10.921875 -8.578125 C 10.984375 -8.160156 11.015625 -7.753906 11.015625 -7.359375 L 11.03125 -4.4375 L 11.03125 -1.8125 C 11.03125 -1.375 11.066406 -1.015625 11.140625 -0.734375 C 11.222656 -0.453125 11.367188 -0.207031 11.578125 0 L 6.4375 0 C 6.644531 -0.207031 6.785156 -0.453125 6.859375 -0.734375 C 6.929688 -1.015625 6.96875 -1.375 6.96875 -1.8125 L 6.96875 -6.796875 C 6.96875 -7.148438 6.90625 -7.460938 6.78125 -7.734375 C 6.664062 -8.015625 6.4375 -8.15625 6.09375 -8.15625 C 5.863281 -8.15625 5.644531 -8.085938 5.4375 -7.953125 C 5.238281 -7.828125 5.070312 -7.609375 4.9375 -7.296875 C 4.8125 -6.992188 4.75 -6.554688 4.75 -5.984375 L 4.75 -1.8125 C 4.75 -1.375 4.785156 -1.015625 4.859375 -0.734375 C 4.941406 -0.453125 5.082031 -0.207031 5.28125 0 Z M 5.28125 0 "/></g></g></g><g fill="#4d433a" fill-opacity="1"><g transform="translate(124.038734, 69.902069)"><g><path d="M 4.71875 0.234375 C 3.800781 0.234375 3.019531 -0.00390625 2.375 -0.484375 C 1.726562 -0.972656 1.234375 -1.625 0.890625 -2.4375 C 0.554688 -3.25 0.390625 -4.15625 0.390625 -5.15625 C 0.390625 -5.84375 0.472656 -6.53125 0.640625 -7.21875 C 0.804688 -7.90625 1.066406 -8.53125 1.421875 -9.09375 C 1.773438 -9.65625 2.222656 -10.101562 2.765625 -10.4375 C 3.316406 -10.78125 3.96875 -10.953125 4.71875 -10.953125 C 5.144531 -10.953125 5.503906 -10.890625 5.796875 -10.765625 C 6.085938 -10.648438 6.332031 -10.507812 6.53125 -10.34375 C 6.726562 -10.1875 6.882812 -10.046875 7 -9.921875 C 7.125 -9.804688 7.222656 -9.75 7.296875 -9.75 C 7.328125 -9.75 7.375 -9.765625 7.4375 -9.796875 C 7.507812 -9.835938 7.546875 -9.953125 7.546875 -10.140625 L 7.546875 -12.296875 C 7.546875 -12.359375 7.539062 -12.46875 7.53125 -12.625 C 7.519531 -12.78125 7.46875 -12.9375 7.375 -13.09375 C 7.289062 -13.257812 7.125 -13.382812 6.875 -13.46875 C 6.863281 -13.476562 6.820312 -13.492188 6.75 -13.515625 C 6.6875 -13.535156 6.65625 -13.59375 6.65625 -13.6875 C 6.65625 -13.769531 6.679688 -13.820312 6.734375 -13.84375 C 6.785156 -13.863281 6.816406 -13.878906 6.828125 -13.890625 C 6.941406 -13.941406 7.132812 -14.03125 7.40625 -14.15625 C 7.675781 -14.28125 7.988281 -14.421875 8.34375 -14.578125 C 8.695312 -14.742188 9.050781 -14.898438 9.40625 -15.046875 C 9.769531 -15.191406 10.101562 -15.3125 10.40625 -15.40625 C 10.71875 -15.507812 10.960938 -15.5625 11.140625 -15.5625 C 11.367188 -15.5625 11.503906 -15.5 11.546875 -15.375 C 11.585938 -15.25 11.609375 -15.109375 11.609375 -14.953125 L 11.609375 -1.8125 C 11.609375 -1.375 11.644531 -1.015625 11.71875 -0.734375 C 11.789062 -0.453125 11.929688 -0.207031 12.140625 0 L 8.390625 0 C 8.054688 0 7.832031 -0.109375 7.71875 -0.328125 C 7.601562 -0.554688 7.546875 -0.863281 7.546875 -1.25 L 7.546875 -1.40625 C 7.546875 -1.519531 7.507812 -1.554688 7.4375 -1.515625 C 7.375 -1.484375 7.316406 -1.425781 7.265625 -1.34375 C 6.992188 -0.90625 6.710938 -0.570312 6.421875 -0.34375 C 6.140625 -0.125 5.851562 0.0234375 5.5625 0.109375 C 5.269531 0.191406 4.988281 0.234375 4.71875 0.234375 Z M 6.4375 -9.34375 C 6.007812 -9.34375 5.664062 -9.226562 5.40625 -9 C 5.144531 -8.769531 4.941406 -8.46875 4.796875 -8.09375 C 4.648438 -7.71875 4.550781 -7.304688 4.5 -6.859375 C 4.457031 -6.421875 4.4375 -5.992188 4.4375 -5.578125 C 4.4375 -5.140625 4.445312 -4.691406 4.46875 -4.234375 C 4.488281 -3.773438 4.550781 -3.351562 4.65625 -2.96875 C 4.769531 -2.582031 4.945312 -2.269531 5.1875 -2.03125 C 5.425781 -1.800781 5.757812 -1.6875 6.1875 -1.6875 C 6.5 -1.6875 6.742188 -1.769531 6.921875 -1.9375 C 7.097656 -2.101562 7.234375 -2.316406 7.328125 -2.578125 C 7.421875 -2.835938 7.476562 -3.101562 7.5 -3.375 C 7.53125 -3.644531 7.546875 -3.890625 7.546875 -4.109375 L 7.546875 -7.09375 C 7.546875 -7.289062 7.53125 -7.515625 7.5 -7.765625 C 7.476562 -8.023438 7.425781 -8.273438 7.34375 -8.515625 C 7.269531 -8.753906 7.160156 -8.953125 7.015625 -9.109375 C 6.867188 -9.265625 6.675781 -9.34375 6.4375 -9.34375 Z M 6.4375 -9.34375 "/></g></g></g><g fill="#4d433a" fill-opacity="1"><g transform="translate(136.259985, 69.902069)"><g><path d="M 0 -9.09375 C 0 -9.175781 0.0234375 -9.226562 0.078125 -9.25 C 0.128906 -9.269531 0.160156 -9.28125 0.171875 -9.28125 C 0.296875 -9.34375 0.488281 -9.4375 0.75 -9.5625 C 1.007812 -9.695312 1.300781 -9.84375 1.625 -10 C 1.957031 -10.15625 2.296875 -10.304688 2.640625 -10.453125 C 2.992188 -10.597656 3.316406 -10.71875 3.609375 -10.8125 C 3.910156 -10.90625 4.15625 -10.953125 4.34375 -10.953125 C 4.5625 -10.953125 4.691406 -10.890625 4.734375 -10.765625 C 4.773438 -10.648438 4.796875 -10.515625 4.796875 -10.359375 L 4.796875 -1.8125 C 4.796875 -1.375 4.832031 -1.015625 4.90625 -0.734375 C 4.988281 -0.453125 5.128906 -0.207031 5.328125 0 L 0.203125 0 C 0.398438 -0.207031 0.535156 -0.453125 0.609375 -0.734375 C 0.691406 -1.015625 0.734375 -1.375 0.734375 -1.8125 L 0.734375 -7.6875 C 0.734375 -7.75 0.726562 -7.863281 0.71875 -8.03125 C 0.71875 -8.195312 0.679688 -8.363281 0.609375 -8.53125 C 0.546875 -8.695312 0.421875 -8.8125 0.234375 -8.875 C 0.210938 -8.882812 0.164062 -8.898438 0.09375 -8.921875 C 0.03125 -8.941406 0 -9 0 -9.09375 Z M 2.734375 -16.234375 C 3.398438 -16.234375 3.9375 -16.023438 4.34375 -15.609375 C 4.757812 -15.203125 4.96875 -14.664062 4.96875 -14 C 4.96875 -13.320312 4.757812 -12.773438 4.34375 -12.359375 C 3.9375 -11.953125 3.398438 -11.75 2.734375 -11.75 C 2.054688 -11.75 1.507812 -11.953125 1.09375 -12.359375 C 0.6875 -12.773438 0.484375 -13.320312 0.484375 -14 C 0.484375 -14.664062 0.6875 -15.203125 1.09375 -15.609375 C 1.507812 -16.023438 2.054688 -16.234375 2.734375 -16.234375 Z M 2.734375 -16.234375 "/></g></g></g><g fill="#4d433a" fill-opacity="1"><g transform="translate(141.672911, 69.902069)"><g><path d="M -0.15625 -13.6875 C -0.15625 -13.769531 -0.128906 -13.820312 -0.078125 -13.84375 C -0.0234375 -13.863281 0.00390625 -13.878906 0.015625 -13.890625 C 0.140625 -13.941406 0.335938 -14.03125 0.609375 -14.15625 C 0.878906 -14.28125 1.1875 -14.421875 1.53125 -14.578125 C 1.882812 -14.742188 2.238281 -14.898438 2.59375 -15.046875 C 2.957031 -15.191406 3.289062 -15.3125 3.59375 -15.40625 C 3.90625 -15.507812 4.15625 -15.5625 4.34375 -15.5625 C 4.5625 -15.5625 4.691406 -15.5 4.734375 -15.375 C 4.773438 -15.25 4.796875 -15.109375 4.796875 -14.953125 L 4.796875 -9.90625 C 4.828125 -9.832031 4.863281 -9.785156 4.90625 -9.765625 C 4.945312 -9.753906 4.992188 -9.75 5.046875 -9.75 C 5.128906 -9.75 5.226562 -9.804688 5.34375 -9.921875 C 5.457031 -10.046875 5.609375 -10.1875 5.796875 -10.34375 C 5.992188 -10.507812 6.238281 -10.648438 6.53125 -10.765625 C 6.820312 -10.890625 7.1875 -10.953125 7.625 -10.953125 C 8.375 -10.953125 9.019531 -10.78125 9.5625 -10.4375 C 10.113281 -10.101562 10.566406 -9.65625 10.921875 -9.09375 C 11.273438 -8.53125 11.535156 -7.90625 11.703125 -7.21875 C 11.867188 -6.53125 11.953125 -5.84375 11.953125 -5.15625 C 11.953125 -4.15625 11.78125 -3.25 11.4375 -2.4375 C 11.101562 -1.625 10.613281 -0.972656 9.96875 -0.484375 C 9.320312 -0.00390625 8.539062 0.234375 7.625 0.234375 C 7.21875 0.234375 6.796875 0.132812 6.359375 -0.0625 C 5.921875 -0.269531 5.492188 -0.695312 5.078125 -1.34375 C 5.023438 -1.425781 4.960938 -1.484375 4.890625 -1.515625 C 4.828125 -1.554688 4.796875 -1.519531 4.796875 -1.40625 L 4.796875 -1.25 C 4.796875 -0.863281 4.734375 -0.554688 4.609375 -0.328125 C 4.492188 -0.109375 4.273438 0 3.953125 0 L 0.203125 0 C 0.398438 -0.207031 0.535156 -0.453125 0.609375 -0.734375 C 0.691406 -1.015625 0.734375 -1.375 0.734375 -1.8125 L 0.734375 -12.296875 C 0.734375 -12.359375 0.726562 -12.46875 0.71875 -12.625 C 0.707031 -12.78125 0.65625 -12.9375 0.5625 -13.09375 C 0.476562 -13.257812 0.316406 -13.382812 0.078125 -13.46875 C 0.0546875 -13.476562 0.015625 -13.492188 -0.046875 -13.515625 C -0.117188 -13.535156 -0.15625 -13.59375 -0.15625 -13.6875 Z M 4.796875 -4.109375 C 4.796875 -3.890625 4.804688 -3.644531 4.828125 -3.375 C 4.859375 -3.101562 4.921875 -2.835938 5.015625 -2.578125 C 5.109375 -2.316406 5.242188 -2.101562 5.421875 -1.9375 C 5.597656 -1.769531 5.835938 -1.6875 6.140625 -1.6875 C 6.578125 -1.6875 6.914062 -1.800781 7.15625 -2.03125 C 7.394531 -2.269531 7.566406 -2.582031 7.671875 -2.96875 C 7.773438 -3.351562 7.835938 -3.773438 7.859375 -4.234375 C 7.890625 -4.691406 7.90625 -5.140625 7.90625 -5.578125 C 7.90625 -5.992188 7.878906 -6.421875 7.828125 -6.859375 C 7.773438 -7.304688 7.675781 -7.71875 7.53125 -8.09375 C 7.394531 -8.46875 7.195312 -8.769531 6.9375 -9 C 6.675781 -9.226562 6.332031 -9.34375 5.90625 -9.34375 C 5.664062 -9.34375 5.472656 -9.265625 5.328125 -9.109375 C 5.179688 -8.953125 5.066406 -8.753906 4.984375 -8.515625 C 4.910156 -8.273438 4.859375 -8.023438 4.828125 -7.765625 C 4.804688 -7.515625 4.796875 -7.289062 4.796875 -7.09375 Z M 4.796875 -4.109375 "/></g></g></g><g fill="#4d433a" fill-opacity="1"><g transform="translate(154.020716, 69.902069)"><g/></g></g></svg>